<svg width="292" height="192" viewBox="0 0 292 192" fill="none" xmlns="http://www.w3.org/2000/svg">
<rect x="82.1989" y="61.3813" width="89.756" height="89.756" rx="13.0853" transform="rotate(-45 82.1989 61.3813)" stroke="white" stroke-width="2.94973" stroke-miterlimit="16" stroke-linejoin="round"/>
<mask id="mask0" mask-type="alpha" maskUnits="userSpaceOnUse" x="84" y="0" width="123" height="123">
<rect x="84.2085" y="61.4332" width="86.8063" height="86.8063" rx="11.6105" transform="rotate(-45 84.2085 61.4332)" fill="white"/>
</mask>
<g mask="url(#mask0)">
<path d="M119.689 6.29205L138.509 -1.66205L145.464 3.68026L124.598 12.4654L128.008 18.2826L150.919 9.02256L157.193 15.0772L130.463 24.812L133.19 30.8666L163.33 21.4879L168.512 28.4923L136.054 37.7523L136.6 45.9438L174.922 37.7523L183.241 49.6241L137.418 55.0851L132.918 64.82L186.923 60.9023V75.6233L128.417 74.911L123.507 83.3399L181.877 93.3122L172.74 110.408L115.325 93.3122" stroke="white" stroke-width="2.10695"/>
<path d="M117.916 96.6364C177.922 49.9803 116.961 -1.89932 115.461 -3.20521M127.326 -6.37195C129.107 -5.36896 209.262 51.9352 161.83 108.508L151.914 118.308" stroke="#00A3B9" stroke-width="4.2139"/>
<path d="M117.916 96.6364C177.922 49.9804 116.961 -1.89932 115.461 -3.20521M127.326 -6.37195C129.107 -5.36896 209.262 51.9352 161.83 108.508L152.703 117.782" stroke="white" stroke-width="2.10695"/>
</g>
<path d="M41.8646 174.22C41.8646 176.771 41.4166 179.118 40.5207 181.261C39.6443 183.403 38.427 185.253 36.8689 186.811C35.3108 188.35 33.4605 189.558 31.3181 190.434C29.1757 191.31 26.8483 191.749 24.3358 191.749H3.82712C3.28178 191.749 2.77539 191.651 2.30796 191.457C1.84052 191.262 1.43152 190.999 1.08094 190.668C0.749843 190.317 0.486911 189.908 0.292146 189.441C0.0973822 188.973 0 188.467 0 187.922V153.682C0 153.156 0.0973822 152.66 0.292146 152.192C0.486911 151.725 0.749843 151.316 1.08094 150.965C1.43152 150.615 1.84052 150.342 2.30796 150.147C2.77539 149.952 3.28178 149.855 3.82712 149.855H24.3358C26.8483 149.855 29.1757 150.293 31.3181 151.17C33.4605 152.046 35.3108 153.263 36.8689 154.821C38.427 156.36 39.6443 158.21 40.5207 160.372C41.4166 162.515 41.8646 164.852 41.8646 167.384V174.22ZM34.2688 167.384C34.2688 165.903 34.0253 164.55 33.5384 163.323C33.071 162.096 32.399 161.054 31.5226 160.197C30.6462 159.32 29.5944 158.649 28.3674 158.181C27.1599 157.694 25.816 157.451 24.3358 157.451H7.59581V184.153H24.3358C25.816 184.153 27.1599 183.919 28.3674 183.452C29.5944 182.965 30.6462 182.293 31.5226 181.436C32.399 180.56 33.071 179.518 33.5384 178.31C34.0253 177.083 34.2688 175.72 34.2688 174.22V167.384Z" fill="white"/>
<path d="M86.8259 191.749H59.4226C58.7214 191.749 57.9619 191.671 57.1438 191.515C56.3453 191.34 55.5468 191.077 54.7482 190.726C53.9692 190.376 53.2193 189.928 52.4987 189.382C51.7781 188.818 51.1354 188.146 50.5705 187.367C50.0252 186.568 49.587 185.653 49.2559 184.62C48.9248 183.569 48.7592 182.39 48.7592 181.085V160.518C48.7592 159.817 48.8371 159.067 48.993 158.269C49.1682 157.451 49.4312 156.652 49.7817 155.873C50.1323 155.075 50.59 154.315 51.1548 153.594C51.7197 152.874 52.3916 152.241 53.1707 151.695C53.9692 151.131 54.8846 150.683 55.9168 150.352C56.9491 150.02 58.1177 149.855 59.4226 149.855H86.8259V157.451H59.4226C58.4293 157.451 57.6697 157.714 57.1438 158.24C56.618 158.765 56.355 159.544 56.355 160.577V181.085C56.355 182.059 56.618 182.819 57.1438 183.364C57.6892 183.89 58.4488 184.153 59.4226 184.153H86.8259V191.749Z" fill="white"/>
<path d="M131.174 191.749H103.77C103.069 191.749 102.31 191.671 101.492 191.515C100.693 191.34 99.8946 191.077 99.0961 190.726C98.317 190.376 97.5672 189.928 96.8465 189.382C96.1259 188.818 95.4832 188.146 94.9184 187.367C94.373 186.568 93.9348 185.653 93.6037 184.62C93.2726 183.569 93.1071 182.39 93.1071 181.085V160.518C93.1071 159.817 93.185 159.067 93.3408 158.269C93.5161 157.451 93.779 156.652 94.1296 155.873C94.4802 155.075 94.9379 154.315 95.5027 153.594C96.0675 152.874 96.7394 152.241 97.5185 151.695C98.317 151.131 99.2324 150.683 100.265 150.352C101.297 150.02 102.465 149.855 103.77 149.855H131.174V157.451H103.77C102.777 157.451 102.018 157.714 101.492 158.24C100.966 158.765 100.703 159.544 100.703 160.577V181.085C100.703 182.059 100.966 182.819 101.492 183.364C102.037 183.89 102.797 184.153 103.77 184.153H131.174V191.749Z" fill="white"/>
<path d="M163.777 174.22H153.494V184.503H146.687V174.22H136.374V167.384H146.687V157.1H153.494V167.384H163.777V174.22Z" fill="white"/>
<path d="M196.03 174.22H185.747V184.503H178.94V174.22H168.627V167.384H178.94V157.1H185.747V167.384H196.03V174.22Z" fill="white"/>
<path d="M238.625 174.629H211.601V166.975H238.625V174.629ZM242.043 191.749H214.64C213.588 191.749 212.439 191.564 211.192 191.194C209.946 190.824 208.787 190.22 207.716 189.382C206.664 188.525 205.778 187.425 205.057 186.081C204.356 184.718 204.005 183.052 204.005 181.085V153.682C204.005 153.156 204.103 152.66 204.298 152.192C204.492 151.725 204.755 151.316 205.086 150.965C205.437 150.615 205.846 150.342 206.313 150.147C206.781 149.952 207.287 149.855 207.832 149.855H242.043V157.451H211.601V181.085C211.601 182.079 211.864 182.838 212.39 183.364C212.916 183.89 213.685 184.153 214.698 184.153H242.043V191.749Z" fill="#E0E0E0"/>
<path d="M268.541 164.813L281.337 149.855H291.708L273.682 170.86L291.591 191.749H281.278L268.541 176.908L255.861 191.749H245.519L263.399 170.86L245.461 149.855H255.745L268.541 164.813Z" fill="#E0E0E0"/>
<path d="M6.30713 135.12L285.648 135.12" stroke="#E0E0E0" stroke-width="1.16105"/>
</svg>
